<svg xmlns="http://www.w3.org/2000/svg" viewBox="0 0 600 600" width="600" height="600"><rect width="600" height="600" fill="#f7f0e7"/><text x="300" y="70" text-anchor="middle" font-family="Georgia, 'Times New Roman', serif" font-size="34" font-weight="700" fill="#2a1a10">Preparo</text><rect x="200" y="380" width="200" height="120" rx="18" fill="#fff" stroke="#e6d6c4" stroke-width="4"/><path d="M400 405 q50 0 48 35 q-2 35 -48 35" fill="none" stroke="#e6d6c4" stroke-width="10"/><rect x="190" y="360" width="220" height="22" rx="8" fill="#c9b8a6"/><path d="M180 200 h240 l-70 160 h-100Z" fill="#fff" stroke="#c9b8a6" stroke-width="5"/><path d="M205 215 h190 l-55 125 h-80Z" fill="#7a4a2e"/><path d="M300 362 v18" stroke="#5b331e" stroke-width="6" stroke-linecap="round"/><path d="M120 150 q60 -50 140 0" fill="none" stroke="#c9b8a6" stroke-width="10" stroke-linecap="round"/><path d="M260 150 q20 20 30 50" fill="none" stroke="#9cc3e6" stroke-width="6" stroke-linecap="round"/><g><rect x="221.64999999999998" y="553" width="156.70000000000002" height="26" rx="13" fill="#1f1915" opacity="0.78"/><text x="300" y="570.68" text-anchor="middle" font-family="Arial, Helvetica, sans-serif" font-size="13" font-weight="700" letter-spacing="1.5" fill="#fff">FOTO PROVISÓRIA</text></g></svg>
